<?xml version="1.0" encoding="utf-8"?>
<!DOCTYPE svg PUBLIC "-//W3C//DTD SVG 1.1//EN" "http://www.w3.org/Graphics/SVG/1.1/DTD/svg11.dtd">
<svg version="1.1" xmlns="http://www.w3.org/2000/svg" xmlns:xlink="http://www.w3.org/1999/xlink" x="0px" y="0px"
	 width="608.742px" height="281.044px" viewBox="0 0 608.742 281.044" enable-background="new 0 0 608.742 281.044"
	 xml:space="preserve">
<path opacity="0.3" fill="#6E6F71" d="M601.742,281.044H4c-2.2,0-4-1.8-4-4l0-3.226c0-2.2,1.8-4,4-4h600.742c2.2,0,4,1.8,4,4v0.226
	C608.742,277.894,605.592,281.044,601.742,281.044z"/>
<g>
	<g>
		<path fill="#EAECED" d="M68.614,263.141v7.118c0,2.317,1.794,4.737,4.019,5.406l10.857,3.244c2.218,0.664,5.895,1.209,8.214,1.209
			h427.375c2.319,0,5.999-0.544,8.221-1.209l10.852-3.244c2.214-0.67,4.017-3.089,4.017-5.406v-7.118H68.614z"/>
		<path fill="#CBD1D5" d="M270.277,263.141c0.269,3.037,2.793,5.427,5.897,5.427h58.43c3.103,0,5.632-2.39,5.903-5.427H270.277z"/>
		<path fill="#333132" d="M68.614,263.141v7.118c0,2.317,1.794,4.737,4.019,5.406l10.857,3.244c2.218,0.664,5.895,1.209,8.214,1.209
			h427.375c2.319,0,5.999-0.544,8.221-1.209l10.852-3.244c2.214-0.67,4.017-3.089,4.017-5.406v-7.118H68.614z"/>
		<g>
			<path fill="#333132" d="M113.735,0.218c-2.749,0-4.998,2.249-4.998,4.998v261.632c0,2.749,2.249,4.998,4.998,4.998H497.05
				c2.749,0,4.998-2.249,4.998-4.998V5.216c0-2.749-2.249-4.998-4.998-4.998H113.735z M486.649,243.443
				c0,2.749-2.249,4.998-4.998,4.998H129.127c-2.749,0-4.998-2.249-4.998-4.998V20.036c0-2.749,2.249-4.998,4.998-4.998h352.524
				c2.749,0,4.998,2.249,4.998,4.998V243.443z"/>
		</g>
		<path opacity="0.5" fill="#333333" d="M270.277,263.141c0.269,3.037,2.793,5.427,5.897,5.427h58.43
			c3.103,0,5.632-2.39,5.903-5.427H270.277z"/>
	</g>
</g>
<path opacity="0.1" fill="#FFFFFF" d="M494.658,0.005c-2.498,0-17.822,0-17.822,0H280.444l221.604,223.623V28.945
	c0,0,0-15.336,0-22.817C502.048-0.408,497.157,0.005,494.658,0.005z"/>
</svg>
