<svg id="Capa_1" enable-background="new 0 0 512 512" height="512" viewBox="0 0 512 512" width="512" xmlns="http://www.w3.org/2000/svg"><g><path d="m467 61h-377v-30h-90v150h90v-30h377c24.813 0 45-20.187 45-45s-20.187-45-45-45zm-407 90h-30v-90h30zm407-30h-377v-30h377c8.271 0 15 6.729 15 15s-6.729 15-15 15z"/><path d="m422 361h-377c-24.813 0-45 20.187-45 45s20.187 45 45 45h377v30h90v-150h-90zm-377 60c-8.271 0-15-6.729-15-15s6.729-15 15-15h377v30zm407-60h30v90h-30z"/><path d="m467 211h-166v-30h-90v30h-166c-24.813 0-45 20.187-45 45s20.187 45 45 45h166v30h90v-30h166c24.813 0 45-20.187 45-45s-20.187-45-45-45zm-422 60c-8.271 0-15-6.729-15-15s6.729-15 15-15h166v30zm226 30h-30v-90h30zm196-30h-166v-30h166c8.271 0 15 6.729 15 15s-6.729 15-15 15z"/></g></svg>