<svg id="Capa_1" enable-background="new 0 0 511.731 511.731" height="512" viewBox="0 0 511.731 511.731" width="512" xmlns="http://www.w3.org/2000/svg"><g><g><path d="m211.563 116.292h-9.151v-14.113c0-5.523-4.478-10-10-10s-10 4.477-10 10v14.113h-9.151c-21.272 0-38.579 17.307-38.579 38.58v9.454c0 21.273 17.307 38.58 38.579 38.58h38.303c10.245 0 18.58 8.335 18.58 18.58v7.418c0 10.245-8.335 18.58-18.58 18.58h-38.304c-10.244 0-18.579-8.335-18.579-18.58 0-5.523-4.478-10-10-10s-10 4.477-10 10c0 21.273 17.307 38.58 38.579 38.58h9.151v14.114c0 5.523 4.478 10 10 10s10-4.477 10-10v-14.114h9.151c21.273 0 38.58-17.307 38.58-38.58v-7.418c0-21.273-17.307-38.58-38.58-38.58h-38.302c-10.244 0-18.579-8.335-18.579-18.58v-9.454c0-10.245 8.335-18.58 18.579-18.58h38.303c10.245 0 18.58 8.335 18.58 18.58v.899c0 5.523 4.478 10 10 10s10-4.477 10-10v-.899c0-21.274-17.306-38.58-38.58-38.58z"/><path d="m498.998 359.793-98.398-98.397c-1.711-1.711-3.984-2.743-6.398-2.906l-21.266-1.433c7.537-20.817 11.36-42.673 11.36-65.166 0-105.809-86.077-191.891-191.879-191.891-87.92 0-164.408 59.448-186.002 144.568-1.357 5.353 1.881 10.794 7.234 12.152 5.353 1.36 10.794-1.88 12.152-7.234 19.342-76.239 87.857-129.486 166.616-129.486 94.774 0 171.879 77.11 171.879 171.89 0 22.104-4.104 43.516-12.211 63.753l-26.861-1.807c8.818-18.828 13.756-39.822 13.756-61.949 0-80.818-65.75-146.568-146.568-146.568s-146.569 65.75-146.569 146.568 65.75 146.568 146.568 146.568c21.703 0 42.317-4.747 60.865-13.249l1.806 26.789c-19.945 7.816-40.993 11.774-62.666 11.774-78.788 0-147.31-53.267-166.631-129.536-1.356-5.354-6.798-8.593-12.149-7.238-5.354 1.356-8.594 6.796-7.237 12.149 21.571 85.154 98.065 144.626 186.018 144.626 22.067 0 43.555-3.688 64.068-10.962l1.478 21.92c.163 2.415 1.195 4.688 2.906 6.399l98.398 98.398c8.139 8.138 18.828 12.207 29.519 12.207s21.38-4.069 29.519-12.207l80.693-80.693c16.276-16.278 16.276-42.762 0-59.039zm-433.155-167.906c0-69.79 56.778-126.568 126.568-126.568s126.569 56.778 126.569 126.568c0 30.804-11.067 59.069-29.426 81.039l-10.459-10.459c-3.906-3.905-10.236-3.905-14.143 0-3.905 3.905-3.905 10.237 0 14.142l10.614 10.614c-22.257 19.438-51.354 31.231-83.155 31.231-69.789.001-126.568-56.777-126.568-126.567zm419.012 212.801-80.693 80.693c-8.479 8.479-22.273 8.479-30.752 0l-95.745-95.744-4.778-70.936 17.08-17.08 6.829 6.829c1.953 1.953 4.512 2.929 7.071 2.929s5.118-.977 7.071-2.929c3.905-3.905 3.905-10.237 0-14.142l-6.829-6.829 14.069-14.069 70.934 4.781 95.743 95.744c8.479 8.48 8.479 22.275 0 30.753z"/><path d="m378.196 372.313c15.297-15.297 15.297-40.188 0-55.485-15.122-15.12-40.363-15.124-55.484 0l-5.341 5.34c-15.297 15.297-15.297 40.188 0 55.484 15.151 15.091 40.341 15.146 55.484 0zm-14.142-14.142-5.341 5.34c-7.437 7.437-19.756 7.376-27.2 0-7.499-7.5-7.499-19.702-.001-27.201l5.341-5.34c7.413-7.412 19.787-7.412 27.2 0 7.499 7.5 7.499 19.702.001 27.201z"/><path d="m401.716 379.589c2.068 5.045 8.04 7.483 13.061 5.41 5.038-2.081 7.495-8.025 5.41-13.06-2.085-5.034-8.028-7.494-13.061-5.41-5.022 2.08-7.503 8.037-5.41 13.06z"/><path d="m418.696 434.639c-1.638-3.932-5.718-6.461-9.972-6.144-4.176.311-7.77 3.281-8.894 7.307-2.416 8.652 7.462 15.882 14.995 11.098 4.058-2.577 5.689-7.826 3.871-12.261z"/><path d="m442.013 396.826h-64.193c-5.522 0-10 4.477-10 10s4.478 10 10 10h64.193c5.522 0 10-4.477 10-10s-4.477-10-10-10z"/><path d="m8.576 201.699c8.776 1.782 15.234-8.561 10.011-15.717-5.424-7.433-17.614-3.767-18.05 5.418-.232 4.899 3.242 9.325 8.039 10.299z"/></g></g></svg>